<?xml version="1.0" encoding="iso-8859-1"?>
<svg xmlns="http://www.w3.org/2000/svg" xmlns:xlink="http://www.w3.org/1999/xlink" version="1.1" viewBox="0 0 44 44" enable-background="new 0 0 44 44" width="512px" height="512px">
  <path d="m22,0c-12.2,0-22,9.8-22,22s9.8,22 22,22 22-9.8 22-22-9.8-22-22-22zm3.3,33.5c-0.6,0.2-1.3-0.3-1.3-1v-2.1c0-0.4 0.2-0.8 0.6-0.9 3.1-1.1 5.4-4.1 5.4-7.5 0-4.4-3.6-8-8-8s-8,3.6-8,8c0,1.4 0.4,2.8 1.1,4 0.1,0.2 0.4,0.3 0.7,0.2 0.2-0.1 0.2-0.3 0.2-0.4v-0.8c0-0.6 0.4-1 1-1h2c0.6,0 1,0.4 1,1v8c0,0.6-0.4,1-1,1h-8c-0.6,0-1-0.4-1-1v-2c0-0.6 0.4-1 1-1h1c0.3,0 0.5-0.2 0.5-0.5 0-0.1 0-0.2-0.1-0.3-1.6-2-2.4-4.5-2.4-7.2 0-6.6 5.4-12 12-12s12,5.4 12,12c0,5.5-3.7,10.1-8.7,11.5z" fill="#006DF0"/>
</svg>
